<svg height="60" viewBox="0 0 112.49785 56.249451" width="120" xmlns="http://www.w3.org/2000/svg"><g fill="#e10098"><g transform="matrix(.19929143577 0 0 .19929143577 27.12271656532 70.05964893716)"><path d="m86.812-245.27q-4.0215 0-7.328 1.0724-3.2172.98303-5.6301 3.3066-2.3235 2.2342-3.7534 5.8088-1.3405 3.5747-1.5192 8.5792-.2681 8.043 0 16.086.17873 5.0045 1.5192 8.5792 1.4299 3.5746 3.7534 5.8982 2.4129 2.2342 5.6301 3.3066 3.3066.98303 7.328.98303 3.9321 0 7.328-1.0724 3.3959-1.1618 5.8088-3.3959 2.5023-2.3235 3.9321-5.8982 1.4299-3.5746 1.4299-8.4004v-4.5577h-15.55q-1.9661 0-1.9661-2.0554v-1.2511q0-2.0554 1.9661-2.0554h19.124q2.0554 0 2.0554 2.0554v7.8642q0 5.362-1.6086 9.8303-1.6086 4.379-4.7364 7.5961-3.0385 3.2172-7.5961 5.0045-4.4683 1.698-10.188 1.698-5.8088 0-10.188-1.698-4.379-1.7873-7.4174-4.9152-2.9491-3.1278-4.5577-7.4174-1.5192-4.379-1.698-9.6516-.17873-4.0215-.17873-8.4898 0-4.4683.17873-8.4898.17873-5.2726 1.7873-9.5622 1.6086-4.379 4.5577-7.5068 3.0385-3.1278 7.4174-4.8258 4.379-1.7873 10.098-1.7873 6.1663 0 10.545 1.8767 4.379 1.8767 7.1493 4.4683 2.7704 2.5916 4.1108 5.4514 1.3405 2.8597 1.4299 4.7364.0894.8043-.44684 1.3405-.5362.44683-1.4299.44683h-1.9661q-.8043 0-1.1618-.35747-.35747-.44683-.71493-1.4299-.71493-2.0554-2.0554-4.0215-1.2511-2.0554-3.3959-3.5746-2.1448-1.6086-5.0939-2.5916-2.9491-.98303-6.9706-.98303z"/><path d="m129-227.49q3.2172-6.1663 12.154-6.1663h3.3066q1.9661 0 1.9661 1.9661v1.2511q0 1.9661-1.9661 1.9661h-3.8428q-5.362 0-8.4898 3.1278-3.1278 3.1278-3.1278 8.4898v27.704q0 .89367-.62557 1.4299-.5362.53619-1.4299.53619h-1.4299q-1.9661 0-1.9661-1.9661v-42.449q0-.89366.53619-1.4299.5362-.62557 1.4299-.62557h1.4299q.89366 0 1.4299.62557.62557.5362.62557 1.4299v4.1108z"/><path d="m184.21-187.18q-1.9661 0-1.9661-1.9661v-4.2002q-.8043 1.2511-2.1448 2.5023-1.2511 1.2511-3.1278 2.2342-1.8767.98303-4.4683 1.6086-2.5916.71493-6.0769.71493-3.2172 0-6.1663-.98303-2.8597-1.0724-5.0939-2.8597-2.1448-1.7873-3.4853-4.2002-1.2511-2.4129-1.2511-5.2726 0-3.0385 1.2511-5.4514 1.3405-2.4129 3.664-4.2002 2.3235-1.8767 5.5407-3.0385 3.3066-1.2511 7.2387-1.7873l14.12-1.9661v-3.1278q0-4.8258-2.9491-7.5068-2.8597-2.681-9.2047-2.681-5.0045 0-7.7749 1.9661-2.681 1.8767-3.3959 4.1108-.35746 1.0724-.89366 1.5192-.44683.35747-1.2511.35747h-1.2511q-.8043 0-1.4299-.5362-.5362-.62557-.5362-1.4299 0-1.2511.89366-3.1278.89367-1.8767 2.8597-3.664 2.0554-1.7873 5.1832-3.0385 3.1278-1.3405 7.5961-1.3405 5.2726 0 8.6685 1.4299 3.4853 1.4299 5.4514 3.7534 1.9661 2.2342 2.681 5.0045.8043 2.7704.8043 5.4514v29.759q0 1.9661-1.9661 1.9661h-1.5192zm-16.89-4.2896q3.0385 0 5.7194-.98303 2.7704-1.0724 4.8258-3.1278 2.0554-2.0554 3.2172-5.1832 1.1618-3.1278 1.1618-7.328v-3.0385l-11.528 1.6086q-14.835 2.0554-14.835 9.4728 0 2.2342.98303 3.8428 1.0724 1.6086 2.681 2.681 1.6086 1.0724 3.664 1.6086 2.0554.44683 4.1108.44683z"/><path d="m222.3-186.29q-5.6301 0-9.2047-2.0554-3.5746-2.0554-5.8088-5.0045v21.18q0 1.9661-1.9661 1.9661h-1.5192q-1.9661 0-1.9661-1.9661v-59.518q0-1.9661 1.9661-1.9661h1.5192q1.9661 0 1.9661 1.9661v4.2002q2.2342-3.0384 5.8088-5.0045 3.5747-2.0554 9.2047-2.0554 5.1832 0 8.7579 1.8767 3.664 1.7873 5.8982 4.8258 2.2342 2.9491 3.2172 6.7918 1.0724 3.7534 1.2511 7.6855.0894 1.3405.0894 2.9491 0 1.6086-.0894 2.9491-.17874 3.9321-1.2511 7.7749-.98303 3.7534-3.2172 6.7918-2.2342 2.9491-5.8982 4.8258-3.5746 1.7873-8.7579 1.7873zm-15.014-27.346q-.0894 1.3405-.0894 3.4853 0 2.1448.0894 3.4853.0894 2.681.89366 5.4514.89366 2.681 2.681 4.8258 1.78734 2.1448 4.4683 3.5746 2.681 1.3405 6.4344 1.3405 3.9321 0 6.5238-1.3405 2.681-1.3405 4.2896-3.5746 1.698-2.3235 2.4129-5.2726.80429-3.0385.98303-6.2556.0894-2.5023 0-5.0045-.17874-3.2172-.98303-6.1663-.71494-2.9491-2.4129-5.1832-1.6086-2.3235-4.2896-3.664-2.5916-1.4299-6.5238-1.4299-3.8428 0-6.5238 1.4299-2.681 1.4299-4.4683 3.7534-1.698 2.2342-2.5916 5.0045-.8043 2.7704-.89366 5.5407z"/><path d="m259.12-227.49q2.4129-3.1278 5.8088-5.0939 3.3959-1.9661 9.2047-1.9661 4.5577 0 7.9536 1.5192 3.3959 1.5192 5.6301 4.2002 2.3235 2.681 3.4853 6.345 1.1618 3.664 1.1618 7.9536v25.38q0 1.9661-1.9661 1.9661h-1.5192q-1.9661 0-1.9661-1.9661v-24.933q0-7.1493-3.4853-11.171-3.4853-4.1108-10.188-4.1108-6.4344 0-10.277 4.0215-3.8428 4.0215-3.8428 11.26v24.933q0 1.9661-1.9661 1.9661h-1.5192q-1.9661 0-1.9661-1.9661v-59.518q0-1.9661 1.9661-1.9661h1.5192q1.9661 0 1.9661 1.9661v21.18z"/><path d="m328.81-250.63q5.1832 0 9.4728 1.5192 4.2896 1.5192 7.328 4.647 3.1278 3.0385 4.8258 7.6855 1.7873 4.5577 1.9661 10.813.17874 4.0215.17874 7.5068 0 3.4853-.17874 7.5068-.44683 12.779-6.5237 18.767l5.7194 8.043q.0894.17873.17873.35747.0894.17873.0894.62556 0 .71493-.5362 1.2511-.5362.5362-1.2511.5362h-1.9661q-.98303 0-1.698-.8043-.71493-.71493-1.1618-1.2511l-3.9321-5.4514q-5.362 2.5916-12.511 2.5916-11.171 0-17.248-5.9876-5.9876-5.9876-6.345-18.678-.17873-4.0215-.17873-7.5068 0-3.4853.17873-7.5068.17874-6.2556 1.8767-10.813 1.7873-4.647 4.8258-7.6855 3.1278-3.1278 7.328-4.647 4.2896-1.5192 9.5622-1.5192zm0 5.362q-3.7534 0-6.9706 1.1618-3.2172 1.0724-5.6301 3.4853-2.4129 2.4129-3.8428 6.1663-1.3405 3.7534-1.5192 8.9366-.0894 2.0554-.17873 3.7534 0 1.698 0 3.3066 0 1.6086 0 3.3959.0894 1.698.17873 3.664.17874 5.2726 1.5192 9.026 1.4299 3.664 3.7534 6.0769 2.4129 2.4129 5.6301 3.5747 3.2172 1.0724 7.06 1.0724 3.8428 0 7.0599-1.0724 3.2172-1.1618 5.5407-3.5747 2.4129-2.4129 3.7534-6.0769 1.4299-3.7534 1.6086-9.026.0894-1.9661.0894-3.664 0-1.7873 0-3.3959 0-1.6086 0-3.3066 0-1.698-.0894-3.7534-.17873-5.1832-1.6086-8.9366-1.3405-3.7534-3.7534-6.1663-2.4129-2.4129-5.6301-3.4853-3.2172-1.1618-6.9706-1.1618z"/><path d="m372.43-192.55h30.831q2.0554 0 2.0554 2.0554v1.3405q0 1.9661-2.0554 1.9661h-34.495q-1.9661 0-1.9661-1.9661v-58.624q0-1.9661 1.9661-1.9661h1.698q1.9661 0 1.9661 1.9661v55.228z"/></g><g transform="matrix(.08353623169 0 0 .08353623169 2.44882963852 11.41747880137)"><path d="m57.468 302.66-14.376-8.3 160.15-277.38 14.376 8.3z"/><path d="m39.8 272.2h320.3v16.6h-320.3z"/><path d="m206.35 374.03-160.21-92.5 8.3-14.376 160.21 92.5zm139.17-241.08-160.21-92.5 8.3-14.376 160.21 92.5z"/><path d="m54.482 132.88-8.3-14.375 160.21-92.5 8.3 14.376z"/><path d="m342.57 302.66-160.15-277.38 14.376-8.3 160.15 277.38zm-290.07-195.16h16.6v185h-16.6zm278.4 0h16.6v185h-16.6z"/><path d="m203.52 367-7.25-12.558 139.34-80.45 7.25 12.557z"/><path d="m369.5 297.9c-9.6 16.7-31 22.4-47.7 12.8s-22.4-31-12.8-47.7 31-22.4 47.7-12.8c16.8 9.7 22.5 31 12.8 47.7m-278.6-160.9c-9.6 16.7-31 22.4-47.7 12.8s-22.4-31-12.8-47.7 31-22.4 47.7-12.8c16.7 9.7 22.4 31 12.8 47.7m-60.4 160.9c-9.6-16.7-3.9-38 12.8-47.7 16.7-9.6 38-3.9 47.7 12.8 9.6 16.7 3.9 38-12.8 47.7-16.8 9.6-38.1 3.9-47.7-12.8m278.6-160.9c-9.6-16.7-3.9-38 12.8-47.7 16.7-9.6 38-3.9 47.7 12.8 9.6 16.7 3.9 38-12.8 47.7-16.7 9.6-38.1 3.9-47.7-12.8m-109.1 258.8c-19.3 0-34.9-15.6-34.9-34.9s15.6-34.9 34.9-34.9 34.9 15.6 34.9 34.9c0 19.2-15.6 34.9-34.9 34.9m0-321.8c-19.3 0-34.9-15.6-34.9-34.9s15.6-34.9 34.9-34.9 34.9 15.6 34.9 34.9-15.6 34.9-34.9 34.9"/></g></g></svg>